<svg width="4032" height="1726" viewBox="0 0 4032 1726" fill="none" xmlns="http://www.w3.org/2000/svg">
    <rect width="4032" height="1726" rx="56" fill="#EFEFEF"/>
    <g filter="url(#filter0_d_1_2)">
        <path d="M909.729 826.847C893.457 808.61 868.044 808.03 858.321 812.074C848.597 816.119 839.152 827.002 837.423 836.524C833.324 859.084 859.179 894.887 875.271 908.263C891.364 921.639 927.276 946.548 942.787 917.394C958.297 888.24 930.069 849.642 909.729 826.847Z" fill="#8E2333"/>
        <path d="M889.736 943.7C870.638 936.193 850.882 919.999 834.3 891.342C834.133 891.054 833.91 890.755 833.678 890.516C817.51 873.918 822.972 932.127 813.798 945.87C804.554 959.717 797.681 969.013 797.681 980.751L790.914 1167.28C790.833 1169.51 792.445 1171.46 794.668 1171.68C819.71 1174.12 842.557 1163.9 871.874 1136.07C924.45 1086.17 929.365 1008.52 930.288 989.383C931.829 957.442 913.729 953.132 889.736 943.7Z" fill="#8E2333"/>
    </g>
    <g filter="url(#filter1_d_1_2)">
        <path d="M658 639V507.985C658 503.825 660.575 500.1 664.467 498.63L675.712 494.383C682.023 492 688.835 496.421 689.228 503.155L697.133 638.417C697.468 644.159 692.902 649 687.15 649H668C662.477 649 658 644.523 658 639Z" fill="url(#paint0_linear_1_2)"/>
        <path d="M713.816 585.221C707.939 557.152 705.664 531.656 708.173 493.923C708.469 489.464 711.748 485.78 716.13 484.903L728.645 482.396C734.834 481.157 740.609 485.89 740.609 492.201V586.694C740.609 594.174 732.697 599.006 726.042 595.59L718.991 591.971C716.34 590.61 714.426 588.137 713.816 585.221Z" fill="url(#paint1_linear_1_2)"/>
        <path d="M763.598 594.793V490C763.598 484.477 768.076 480 773.599 480H784.327C789.85 480 794.327 484.477 794.327 490V588.551C794.327 592.112 792.434 595.404 789.356 597.194L778.628 603.437C771.961 607.316 763.598 602.506 763.598 594.793Z" fill="url(#paint2_linear_1_2)"/>
        <path d="M857.167 596.105L851.906 494.633C851.658 489.846 848.047 485.908 843.298 485.247L835.337 484.138C829.324 483.301 823.958 487.972 823.958 494.043V590.918C823.958 594.91 826.332 598.519 829.997 600.1L843.218 605.804C850.026 608.741 857.55 603.509 857.167 596.105Z" fill="url(#paint3_linear_1_2)"/>
    </g>
    <g filter="url(#filter2_d_1_2)">
        <path d="M894.901 667.58C911.851 683.497 920.463 716.352 922.325 730.946C922.454 731.958 922.244 733.07 921.33 733.522C911.679 738.296 865.261 706.263 837.619 704.464C799.691 701.995 777.689 729.856 761.163 750.781L760.975 751.02C758.844 753.717 754.374 753.063 752.717 750.051C747.35 740.292 737.83 727.13 732.081 720.11C720.976 706.552 718.311 683.98 735.535 667.037C752.996 649.862 765.54 641.597 808.684 636.919C851.597 632.267 884.399 657.718 894.901 667.58Z" fill="url(#paint4_linear_1_2)"/>
        <path d="M727.919 784.035C730.844 770.184 714.393 747.931 700.548 736.154C697.208 733.924 679.137 721.218 644.159 722.877C602.082 724.872 581.195 755.18 568.969 784.665C552.506 824.369 563.77 899.267 568.969 886.566C581.224 856.63 616 850 659.753 841.668C692.358 835.46 719.86 822.2 727.919 784.035Z" fill="url(#paint5_linear_1_2)"/>
        <path d="M982.84 783.618L984.528 757.689C984.686 755.275 982.856 753.186 980.439 753.084C949.036 751.746 916.451 757.212 864.216 737.201C820.865 720.593 805.12 737.201 792.516 749.917C783.219 759.295 764.743 786.332 756.406 803.05C755.451 804.967 756.118 807.269 757.899 808.458L803.707 839.036C805.832 840.455 808.711 839.764 809.928 837.516C816.503 825.376 825.291 808.305 837.665 793.994C854.992 773.955 880.373 776.77 906.371 784.035C925.931 789.501 943.949 782.437 977.65 787.705C980.241 788.111 982.67 786.236 982.84 783.618Z" fill="url(#paint6_linear_1_2)"/>
        <path d="M800.158 847.203L753.938 816.349C751.795 814.919 748.899 815.629 747.5 817.792C729.908 844.989 682.655 876.57 636.5 879.5C598.767 881.895 575.181 912.256 577.324 938.133C586.708 1051.46 685.857 1124.52 708.932 1144.03C722.42 1155.44 744.563 1164.55 754.869 1167.23C757.204 1167.84 759.252 1166.01 759.377 1163.6C767.587 1004.55 768.889 977.933 768.889 967.808C768.889 946.593 785.538 932.363 789.932 924.174C805.146 895.821 797.171 874.302 802.032 852.025C802.434 850.183 801.727 848.25 800.158 847.203Z" fill="url(#paint7_linear_1_2)"/>
    </g>
    <g filter="url(#filter3_d_1_2)">
        <path d="M894.9 667.58C911.851 683.497 920.463 716.353 922.324 730.947C922.453 731.958 922.243 733.07 921.329 733.522C911.678 738.296 865.261 706.264 837.618 704.464C799.69 701.995 777.688 729.856 761.162 750.782L760.974 751.02C758.844 753.718 754.373 753.063 752.716 750.051C747.349 740.292 737.83 727.13 732.08 720.11C720.975 706.552 718.311 683.98 735.535 667.038C752.995 649.863 765.54 641.597 808.683 636.92C851.596 632.268 884.398 657.719 894.9 667.58Z" fill="url(#paint8_linear_1_2)"/>
    </g>
    <g filter="url(#filter4_d_1_2)">
        <path d="M1001.5 861.402C998.186 861.402 995.5 864.089 995.5 867.402C995.5 870.716 998.186 873.402 1001.5 873.402V861.402ZM1130.41 869.56L1124.48 868.693L1130.41 869.56ZM1113.17 987.635L1119.11 988.502L1113.17 987.635ZM1103.16 664.715L1097.27 663.549L1103.16 664.715ZM1001.5 873.402H1060.93V861.402H1001.5V873.402ZM1069.29 866.537L1109.04 665.881L1097.27 663.549L1057.52 864.205L1069.29 866.537ZM1102.15 665.205V987.271H1114.15V665.205H1102.15ZM1119.11 988.502L1136.35 870.427L1124.48 868.693L1107.24 986.768L1119.11 988.502ZM1132.91 873.402H1331.5V861.402H1132.91V873.402ZM1136.35 870.427C1136.1 872.136 1134.63 873.402 1132.91 873.402V861.402C1128.68 861.402 1125.09 864.507 1124.48 868.693L1136.35 870.427ZM1102.15 987.271C1102.15 997.838 1117.58 998.958 1119.11 988.502L1107.24 986.768C1107.35 985.988 1107.82 985.085 1108.68 984.46C1109.45 983.903 1110.27 983.754 1110.93 983.802C1111.58 983.849 1112.37 984.115 1113.06 984.778C1113.82 985.52 1114.15 986.482 1114.15 987.271H1102.15ZM1109.04 665.881C1108.89 666.652 1108.39 667.51 1107.53 668.086C1106.76 668.603 1105.95 668.731 1105.29 668.667C1104.64 668.603 1103.87 668.32 1103.21 667.662C1102.48 666.93 1102.15 665.991 1102.15 665.205H1114.15C1114.15 654.903 1099.28 653.444 1097.27 663.549L1109.04 665.881ZM1060.93 873.402C1065 873.402 1068.5 870.527 1069.29 866.537L1057.52 864.205C1057.84 862.576 1059.27 861.402 1060.93 861.402V873.402Z" fill="#AF2F41"/>
    </g>
    <g filter="url(#filter5_d_1_2)">
        <path d="M527 879C530.314 879 533 876.314 533 873C533 869.686 530.314 867 527 867L527 879ZM527 867L307 867L307 879L527 879L527 867Z" fill="#8E2333"/>
    </g>
    <g filter="url(#filter6_d_1_2)">
        <path d="M1141.42 503.702C1070.44 432.699 980.002 384.345 881.55 364.756C783.098 345.166 681.049 355.22 588.309 393.647C495.57 432.073 416.304 497.146 360.535 580.637C304.766 664.128 275 762.286 275 862.7C275 963.113 304.766 1061.27 360.535 1144.76C416.304 1228.25 495.57 1293.33 588.31 1331.75C681.049 1370.18 783.098 1380.23 881.55 1360.64C980.002 1341.05 1070.44 1292.7 1141.42 1221.7" stroke="url(#paint9_linear_1_2)" stroke-width="85.3398"/>
    </g>
    <g filter="url(#filter7_d_1_2)">
        <path d="M1151.88 513C1241.08 607.779 1285 719.5 1288.5 851.5" stroke="#AF2F41" stroke-width="85.3398"/>
    </g>
    <g filter="url(#filter8_d_1_2)">
        <path d="M1287 882C1280.5 1008.5 1240.05 1118.21 1153.5 1210.5" stroke="white" stroke-width="81.4603"/>
    </g>
    <path d="M1592.64 1116.82H1606.21V1205.07H1656.95V1217H1592.64V1116.82ZM1728.79 1175.94L1713.58 1131.68L1697.42 1175.94H1728.79ZM1706.49 1116.82H1721.83L1758.18 1217H1743.32L1733.16 1186.99H1693.53L1682.69 1217H1668.78L1706.49 1116.82ZM1777.51 1116.82H1793.54L1844.14 1197.97V1116.82H1857.03V1217H1841.82L1790.47 1135.91V1217H1777.51V1116.82ZM1936.85 1175.94L1921.64 1131.68L1905.48 1175.94H1936.85ZM1914.55 1116.82H1929.9L1966.25 1217H1951.38L1941.22 1186.99H1901.59L1890.75 1217H1876.84L1914.55 1116.82ZM2000.3 1116.82V1178.74C2000.3 1186.02 2001.67 1192.06 2004.4 1196.88C2008.44 1204.16 2015.26 1207.79 2024.86 1207.79C2036.36 1207.79 2044.18 1203.86 2048.32 1195.99C2050.54 1191.72 2051.66 1185.97 2051.66 1178.74V1116.82H2065.43V1173.08C2065.43 1185.4 2063.77 1194.88 2060.46 1201.52C2054.36 1213.61 2042.86 1219.66 2025.95 1219.66C2009.03 1219.66 1997.55 1213.61 1991.51 1201.52C1988.19 1194.88 1986.53 1185.4 1986.53 1173.08V1116.82H2000.3ZM2131.95 1205.41C2136.55 1205.41 2140.32 1204.93 2143.28 1203.97C2148.55 1202.2 2152.87 1198.79 2156.23 1193.74C2158.92 1189.7 2160.85 1184.51 2162.03 1178.19C2162.71 1174.42 2163.05 1170.92 2163.05 1167.69C2163.05 1155.28 2160.58 1145.64 2155.62 1138.78C2150.71 1131.91 2142.78 1128.48 2131.82 1128.48H2107.74V1205.41H2131.95ZM2094.1 1116.82H2134.68C2148.46 1116.82 2159.14 1121.7 2166.74 1131.48C2173.51 1140.3 2176.9 1151.6 2176.9 1165.37C2176.9 1176.01 2174.9 1185.63 2170.9 1194.22C2163.85 1209.41 2151.73 1217 2134.55 1217H2094.1V1116.82ZM2204.48 1116.82H2218.19V1217H2204.48V1116.82ZM2248.56 1116.82H2321.6V1129.09H2261.79V1159.51H2317.1V1171.1H2261.79V1205.07H2322.62V1217H2248.56V1116.82ZM2293.78 1108.91H2284.43L2266.16 1089.2H2281.36L2293.78 1108.91ZM2393.99 1162.71C2400.35 1162.71 2405.38 1161.44 2409.06 1158.89C2412.79 1156.35 2414.65 1151.76 2414.65 1145.12C2414.65 1137.98 2412.06 1133.12 2406.88 1130.52C2404.1 1129.16 2400.4 1128.48 2395.76 1128.48H2362.62V1162.71H2393.99ZM2349.04 1116.82H2395.42C2403.06 1116.82 2409.36 1117.93 2414.31 1120.16C2423.72 1124.43 2428.43 1132.32 2428.43 1143.82C2428.43 1149.82 2427.18 1154.73 2424.68 1158.55C2422.22 1162.37 2418.77 1165.44 2414.31 1167.76C2418.22 1169.35 2421.15 1171.44 2423.11 1174.03C2425.11 1176.63 2426.22 1180.83 2426.45 1186.65L2426.93 1200.09C2427.06 1203.91 2427.38 1206.75 2427.88 1208.61C2428.7 1211.79 2430.16 1213.84 2432.25 1214.75V1217H2415.61C2415.15 1216.14 2414.79 1215.02 2414.52 1213.66C2414.24 1212.29 2414.02 1209.66 2413.83 1205.75L2413.02 1189.04C2412.7 1182.49 2410.26 1178.1 2405.72 1175.88C2403.13 1174.65 2399.06 1174.03 2393.51 1174.03H2362.62V1217H2349.04V1116.82ZM2456.62 1116.82H2529.66V1129.09H2469.85V1159.51H2525.16V1171.1H2469.85V1205.07H2530.69V1217H2456.62V1116.82Z" fill="#AF2F41"/>
    <mask id="path-12-outside-1_1_2" maskUnits="userSpaceOnUse" x="1579" y="769" width="2241" height="232" fill="black">
        <rect fill="white" x="1579" y="769" width="2241" height="232"/>
        <path d="M1742.76 976.926C1726.69 991.636 1706.14 998.991 1681.1 998.991C1650.12 998.991 1625.77 989.055 1608.04 969.182C1590.31 949.211 1581.44 921.838 1581.44 887.06C1581.44 849.457 1591.53 820.476 1611.69 800.116C1629.23 782.386 1651.53 773.522 1678.62 773.522C1714.85 773.522 1741.35 785.406 1758.11 809.176C1767.36 822.522 1772.33 835.917 1773.01 849.36H1728.01C1725.08 839.034 1721.33 831.241 1716.75 825.98C1708.57 816.628 1696.44 811.952 1680.37 811.952C1664 811.952 1651.1 818.577 1641.65 831.825C1632.2 844.976 1627.47 863.631 1627.47 887.791C1627.47 911.95 1632.44 930.069 1642.38 942.149C1652.41 954.131 1665.12 960.122 1680.52 960.122C1696.3 960.122 1708.33 954.959 1716.61 944.633C1721.19 939.08 1724.99 930.751 1728.01 919.646H1772.57C1768.68 943.123 1758.74 962.217 1742.76 976.926ZM1948.13 948.724H1868.78L1853.88 993H1806.83L1883.69 777.613H1934.54L2010.81 993H1962.01L1948.13 948.724ZM1935.56 911.609L1908.67 826.857L1880.91 911.609H1935.56ZM2144.72 908.54H2098.26V993H2054.27V777.613H2159.92C2175.02 777.905 2186.61 779.756 2194.7 783.166C2202.88 786.575 2209.8 791.592 2215.45 798.217C2220.12 803.672 2223.82 809.712 2226.55 816.336C2229.28 822.96 2230.64 830.51 2230.64 838.985C2230.64 849.214 2228.06 859.296 2222.9 869.233C2217.74 879.072 2209.21 886.037 2197.33 890.129C2207.26 894.123 2214.28 899.822 2218.37 907.225C2222.56 914.531 2224.65 925.734 2224.65 940.834V955.3C2224.65 965.139 2225.04 971.812 2225.82 975.319C2226.99 980.872 2229.72 984.963 2234 987.593V993H2184.47C2183.1 988.227 2182.13 984.379 2181.55 981.456C2180.38 975.416 2179.74 969.23 2179.65 962.898L2179.35 942.879C2179.16 929.144 2176.63 919.987 2171.76 915.408C2166.98 910.83 2157.97 908.54 2144.72 908.54ZM2172.05 869.379C2181.01 865.288 2185.49 857.202 2185.49 845.122C2185.49 832.069 2181.16 823.301 2172.49 818.82C2167.62 816.287 2160.31 815.021 2150.57 815.021H2098.26V872.886H2149.25C2159.38 872.886 2166.98 871.717 2172.05 869.379ZM2377.26 993H2284.48V777.613H2377.26C2390.61 777.808 2401.72 779.367 2410.58 782.289C2425.68 787.257 2437.91 796.366 2447.26 809.614C2454.76 820.33 2459.87 831.923 2462.6 844.392C2465.33 856.861 2466.69 868.746 2466.69 880.046C2466.69 908.686 2460.94 932.943 2449.45 952.816C2433.86 979.605 2409.8 993 2377.26 993ZM2410.73 832.556C2403.81 820.866 2390.12 815.021 2369.67 815.021H2328.17V955.592H2369.67C2390.9 955.592 2405.71 945.12 2414.09 924.176C2418.67 912.68 2420.96 898.993 2420.96 883.115C2420.96 861.196 2417.55 844.343 2410.73 832.556ZM2512.2 777.613H2556.91V993H2512.2V777.613ZM2709.23 998.991C2678.45 998.991 2654.92 990.613 2638.65 973.858C2616.83 953.303 2605.92 923.688 2605.92 885.014C2605.92 845.561 2616.83 815.946 2638.65 796.171C2654.92 779.415 2678.45 771.038 2709.23 771.038C2740.01 771.038 2763.54 779.415 2779.81 796.171C2801.53 815.946 2812.39 845.561 2812.39 885.014C2812.39 923.688 2801.53 953.303 2779.81 973.858C2763.54 990.613 2740.01 998.991 2709.23 998.991ZM2751.75 941.126C2762.17 927.975 2767.39 909.271 2767.39 885.014C2767.39 860.855 2762.13 842.2 2751.61 829.049C2741.18 815.8 2727.06 809.176 2709.23 809.176C2691.4 809.176 2677.18 815.751 2666.56 828.903C2655.94 842.054 2650.63 860.758 2650.63 885.014C2650.63 909.271 2655.94 927.975 2666.56 941.126C2677.18 954.277 2691.4 960.853 2709.23 960.853C2727.06 960.853 2741.23 954.277 2751.75 941.126ZM2861.84 777.613H2906.85V954.277H3013.52V993H2861.84V777.613ZM3155.02 998.991C3124.24 998.991 3100.72 990.613 3084.45 973.858C3062.63 953.303 3051.71 923.688 3051.71 885.014C3051.71 845.561 3062.63 815.946 3084.45 796.171C3100.72 779.415 3124.24 771.038 3155.02 771.038C3185.81 771.038 3209.33 779.415 3225.6 796.171C3247.33 815.946 3258.19 845.561 3258.19 885.014C3258.19 923.688 3247.33 953.303 3225.6 973.858C3209.33 990.613 3185.81 998.991 3155.02 998.991ZM3197.55 941.126C3207.97 927.975 3213.18 909.271 3213.18 885.014C3213.18 860.855 3207.92 842.2 3197.4 829.049C3186.98 815.8 3172.85 809.176 3155.02 809.176C3137.2 809.176 3122.97 815.751 3112.36 828.903C3101.74 842.054 3096.43 860.758 3096.43 885.014C3096.43 909.271 3101.74 927.975 3112.36 941.126C3122.97 954.277 3137.2 960.853 3155.02 960.853C3172.85 960.853 3187.03 954.277 3197.55 941.126ZM3439.73 987.74C3427.85 995.046 3413.24 998.699 3395.9 998.699C3367.35 998.699 3343.97 988.811 3325.76 969.036C3306.76 949.163 3297.26 921.984 3297.26 887.498C3297.26 852.623 3306.86 824.665 3326.05 803.623C3345.24 782.581 3370.62 772.06 3402.18 772.06C3429.55 772.06 3451.52 779.026 3468.08 792.956C3484.74 806.789 3494.29 824.081 3496.72 844.83H3452.45C3449.04 830.12 3440.71 819.843 3427.46 813.998C3420.05 810.783 3411.82 809.176 3402.76 809.176C3385.42 809.176 3371.15 815.751 3359.95 828.903C3348.84 841.956 3343.29 861.634 3343.29 887.937C3343.29 914.434 3349.33 933.187 3361.41 944.195C3373.49 955.203 3387.23 960.707 3402.62 960.707C3417.72 960.707 3430.09 956.372 3439.73 947.702C3449.38 938.934 3455.32 927.488 3457.56 913.362H3407.73V877.416H3497.45V993H3467.64L3463.11 966.113C3454.44 976.342 3446.65 983.551 3439.73 987.74ZM3552.01 777.613H3596.73V993H3552.01V777.613ZM3803.7 898.896H3699.07V954.277H3818.31V993H3655.09V777.613H3813.05V815.751H3699.07V861.488H3803.7V898.896Z"/>
    </mask>
    <path d="M1742.76 976.926C1726.69 991.636 1706.14 998.991 1681.1 998.991C1650.12 998.991 1625.77 989.055 1608.04 969.182C1590.31 949.211 1581.44 921.838 1581.44 887.06C1581.44 849.457 1591.53 820.476 1611.69 800.116C1629.23 782.386 1651.53 773.522 1678.62 773.522C1714.85 773.522 1741.35 785.406 1758.11 809.176C1767.36 822.522 1772.33 835.917 1773.01 849.36H1728.01C1725.08 839.034 1721.33 831.241 1716.75 825.98C1708.57 816.628 1696.44 811.952 1680.37 811.952C1664 811.952 1651.1 818.577 1641.65 831.825C1632.2 844.976 1627.47 863.631 1627.47 887.791C1627.47 911.95 1632.44 930.069 1642.38 942.149C1652.41 954.131 1665.12 960.122 1680.52 960.122C1696.3 960.122 1708.33 954.959 1716.61 944.633C1721.19 939.08 1724.99 930.751 1728.01 919.646H1772.57C1768.68 943.123 1758.74 962.217 1742.76 976.926ZM1948.13 948.724H1868.78L1853.88 993H1806.83L1883.69 777.613H1934.54L2010.81 993H1962.01L1948.13 948.724ZM1935.56 911.609L1908.67 826.857L1880.91 911.609H1935.56ZM2144.72 908.54H2098.26V993H2054.27V777.613H2159.92C2175.02 777.905 2186.61 779.756 2194.7 783.166C2202.88 786.575 2209.8 791.592 2215.45 798.217C2220.12 803.672 2223.82 809.712 2226.55 816.336C2229.28 822.96 2230.64 830.51 2230.64 838.985C2230.64 849.214 2228.06 859.296 2222.9 869.233C2217.74 879.072 2209.21 886.037 2197.33 890.129C2207.26 894.123 2214.28 899.822 2218.37 907.225C2222.56 914.531 2224.65 925.734 2224.65 940.834V955.3C2224.65 965.139 2225.04 971.812 2225.82 975.319C2226.99 980.872 2229.72 984.963 2234 987.593V993H2184.47C2183.1 988.227 2182.13 984.379 2181.55 981.456C2180.38 975.416 2179.74 969.23 2179.65 962.898L2179.35 942.879C2179.16 929.144 2176.63 919.987 2171.76 915.408C2166.98 910.83 2157.97 908.54 2144.72 908.54ZM2172.05 869.379C2181.01 865.288 2185.49 857.202 2185.49 845.122C2185.49 832.069 2181.16 823.301 2172.49 818.82C2167.62 816.287 2160.31 815.021 2150.57 815.021H2098.26V872.886H2149.25C2159.38 872.886 2166.98 871.717 2172.05 869.379ZM2377.26 993H2284.48V777.613H2377.26C2390.61 777.808 2401.72 779.367 2410.58 782.289C2425.68 787.257 2437.91 796.366 2447.26 809.614C2454.76 820.33 2459.87 831.923 2462.6 844.392C2465.33 856.861 2466.69 868.746 2466.69 880.046C2466.69 908.686 2460.94 932.943 2449.45 952.816C2433.86 979.605 2409.8 993 2377.26 993ZM2410.73 832.556C2403.81 820.866 2390.12 815.021 2369.67 815.021H2328.17V955.592H2369.67C2390.9 955.592 2405.71 945.12 2414.09 924.176C2418.67 912.68 2420.96 898.993 2420.96 883.115C2420.96 861.196 2417.55 844.343 2410.73 832.556ZM2512.2 777.613H2556.91V993H2512.2V777.613ZM2709.23 998.991C2678.45 998.991 2654.92 990.613 2638.65 973.858C2616.83 953.303 2605.92 923.688 2605.92 885.014C2605.92 845.561 2616.83 815.946 2638.65 796.171C2654.92 779.415 2678.45 771.038 2709.23 771.038C2740.01 771.038 2763.54 779.415 2779.81 796.171C2801.53 815.946 2812.39 845.561 2812.39 885.014C2812.39 923.688 2801.53 953.303 2779.81 973.858C2763.54 990.613 2740.01 998.991 2709.23 998.991ZM2751.75 941.126C2762.17 927.975 2767.39 909.271 2767.39 885.014C2767.39 860.855 2762.13 842.2 2751.61 829.049C2741.18 815.8 2727.06 809.176 2709.23 809.176C2691.4 809.176 2677.18 815.751 2666.56 828.903C2655.94 842.054 2650.63 860.758 2650.63 885.014C2650.63 909.271 2655.94 927.975 2666.56 941.126C2677.18 954.277 2691.4 960.853 2709.23 960.853C2727.06 960.853 2741.23 954.277 2751.75 941.126ZM2861.84 777.613H2906.85V954.277H3013.52V993H2861.84V777.613ZM3155.02 998.991C3124.24 998.991 3100.72 990.613 3084.45 973.858C3062.63 953.303 3051.71 923.688 3051.71 885.014C3051.71 845.561 3062.63 815.946 3084.45 796.171C3100.72 779.415 3124.24 771.038 3155.02 771.038C3185.81 771.038 3209.33 779.415 3225.6 796.171C3247.33 815.946 3258.19 845.561 3258.19 885.014C3258.19 923.688 3247.33 953.303 3225.6 973.858C3209.33 990.613 3185.81 998.991 3155.02 998.991ZM3197.55 941.126C3207.97 927.975 3213.18 909.271 3213.18 885.014C3213.18 860.855 3207.92 842.2 3197.4 829.049C3186.98 815.8 3172.85 809.176 3155.02 809.176C3137.2 809.176 3122.97 815.751 3112.36 828.903C3101.74 842.054 3096.43 860.758 3096.43 885.014C3096.43 909.271 3101.74 927.975 3112.36 941.126C3122.97 954.277 3137.2 960.853 3155.02 960.853C3172.85 960.853 3187.03 954.277 3197.55 941.126ZM3439.73 987.74C3427.85 995.046 3413.24 998.699 3395.9 998.699C3367.35 998.699 3343.97 988.811 3325.76 969.036C3306.76 949.163 3297.26 921.984 3297.26 887.498C3297.26 852.623 3306.86 824.665 3326.05 803.623C3345.24 782.581 3370.62 772.06 3402.18 772.06C3429.55 772.06 3451.52 779.026 3468.08 792.956C3484.74 806.789 3494.29 824.081 3496.72 844.83H3452.45C3449.04 830.12 3440.71 819.843 3427.46 813.998C3420.05 810.783 3411.82 809.176 3402.76 809.176C3385.42 809.176 3371.15 815.751 3359.95 828.903C3348.84 841.956 3343.29 861.634 3343.29 887.937C3343.29 914.434 3349.33 933.187 3361.41 944.195C3373.49 955.203 3387.23 960.707 3402.62 960.707C3417.72 960.707 3430.09 956.372 3439.73 947.702C3449.38 938.934 3455.32 927.488 3457.56 913.362H3407.73V877.416H3497.45V993H3467.64L3463.11 966.113C3454.44 976.342 3446.65 983.551 3439.73 987.74ZM3552.01 777.613H3596.73V993H3552.01V777.613ZM3803.7 898.896H3699.07V954.277H3818.31V993H3655.09V777.613H3813.05V815.751H3699.07V861.488H3803.7V898.896Z" fill="#AF2F41"/>
    <path d="M1742.76 976.926L1743.78 978.039L1743.79 978.036L1742.76 976.926ZM1608.04 969.182L1606.91 970.183L1606.91 970.186L1608.04 969.182ZM1611.69 800.116L1612.76 801.177L1612.76 801.177L1611.69 800.116ZM1758.11 809.176L1759.35 808.316L1759.34 808.307L1758.11 809.176ZM1773.01 849.36V850.868H1774.6L1774.52 849.284L1773.01 849.36ZM1728.01 849.36L1726.55 849.771L1726.87 850.868H1728.01V849.36ZM1716.75 825.98L1717.89 824.99L1717.89 824.987L1716.75 825.98ZM1641.65 831.825L1642.87 832.705L1642.87 832.701L1641.65 831.825ZM1642.38 942.149L1641.21 943.107L1641.22 943.117L1642.38 942.149ZM1716.61 944.633L1715.44 943.673L1715.44 943.681L1715.43 943.689L1716.61 944.633ZM1728.01 919.646V918.138H1726.85L1726.55 919.25L1728.01 919.646ZM1772.57 919.646L1774.06 919.893L1774.35 918.138H1772.57V919.646ZM1741.75 975.814C1725.99 990.231 1705.82 997.483 1681.1 997.483V1000.5C1706.45 1000.5 1727.39 993.041 1743.78 978.039L1741.75 975.814ZM1681.1 997.483C1650.47 997.483 1626.56 987.677 1609.16 968.178L1606.91 970.186C1624.98 990.433 1649.77 1000.5 1681.1 1000.5V997.483ZM1609.17 968.181C1591.75 948.561 1582.95 921.583 1582.95 887.06H1579.94C1579.94 922.092 1588.87 949.862 1606.91 970.183L1609.17 968.181ZM1582.95 887.06C1582.95 849.726 1592.96 821.175 1612.76 801.177L1610.62 799.055C1590.1 819.777 1579.94 849.189 1579.94 887.06H1582.95ZM1612.76 801.177C1629.99 783.76 1651.9 775.03 1678.62 775.03V772.014C1651.17 772.014 1628.46 781.013 1610.62 799.056L1612.76 801.177ZM1678.62 775.03C1714.5 775.03 1740.47 786.775 1756.87 810.045L1759.34 808.307C1742.23 784.037 1715.21 772.014 1678.62 772.014V775.03ZM1756.87 810.035C1766 823.198 1770.84 836.327 1771.51 849.436L1774.52 849.284C1773.82 835.506 1768.73 821.846 1759.35 808.317L1756.87 810.035ZM1773.01 847.852H1728.01V850.868H1773.01V847.852ZM1729.46 848.949C1726.5 838.513 1722.67 830.484 1717.89 824.99L1715.62 826.97C1719.99 831.997 1723.66 839.554 1726.55 849.771L1729.46 848.949ZM1717.89 824.987C1709.34 815.218 1696.74 810.444 1680.37 810.444V813.46C1696.14 813.46 1707.8 818.039 1715.62 826.973L1717.89 824.987ZM1680.37 810.444C1663.52 810.444 1650.15 817.301 1640.42 830.949L1642.87 832.701C1652.04 819.852 1664.49 813.46 1680.37 813.46V810.444ZM1640.42 830.945C1630.72 844.451 1625.96 863.463 1625.96 887.791H1628.98C1628.98 863.8 1633.68 845.502 1642.87 832.705L1640.42 830.945ZM1625.96 887.791C1625.96 912.118 1630.96 930.645 1641.21 943.107L1643.54 941.191C1633.92 929.494 1628.98 911.781 1628.98 887.791H1625.96ZM1641.22 943.117C1651.54 955.435 1664.67 961.63 1680.52 961.63V958.614C1665.58 958.614 1653.29 952.827 1643.53 941.181L1641.22 943.117ZM1680.52 961.63C1696.66 961.63 1709.16 956.329 1717.78 945.576L1715.43 943.689C1707.49 953.589 1695.94 958.614 1680.52 958.614V961.63ZM1717.77 945.592C1722.54 939.805 1726.41 931.244 1729.46 920.041L1726.55 919.25C1723.56 930.259 1719.83 938.355 1715.44 943.673L1717.77 945.592ZM1728.01 921.154H1772.57V918.138H1728.01V921.154ZM1771.09 919.399C1767.24 942.578 1757.45 961.357 1741.74 975.817L1743.79 978.036C1760.03 963.076 1770.12 943.668 1774.06 919.893L1771.09 919.399ZM1948.13 948.724L1949.57 948.273L1949.23 947.216H1948.13V948.724ZM1868.78 948.724V947.216H1867.7L1867.35 948.243L1868.78 948.724ZM1853.88 993V994.508H1854.96L1855.31 993.481L1853.88 993ZM1806.83 993L1805.4 992.493L1804.69 994.508H1806.83V993ZM1883.69 777.613V776.105H1882.62L1882.27 777.106L1883.69 777.613ZM1934.54 777.613L1935.96 777.11L1935.6 776.105H1934.54V777.613ZM2010.81 993V994.508H2012.95L2012.24 992.497L2010.81 993ZM1962.01 993L1960.57 993.451L1960.9 994.508H1962.01V993ZM1935.56 911.609V913.117H1937.62L1937 911.153L1935.56 911.609ZM1908.67 826.857L1910.11 826.401L1908.7 821.942L1907.24 826.387L1908.67 826.857ZM1880.91 911.609L1879.48 911.139L1878.83 913.117H1880.91V911.609ZM1948.13 947.216H1868.78V950.233H1948.13V947.216ZM1867.35 948.243L1852.45 992.519L1855.31 993.481L1870.21 949.206L1867.35 948.243ZM1853.88 991.492H1806.83V994.508H1853.88V991.492ZM1808.25 993.507L1885.11 778.12L1882.27 777.106L1805.4 992.493L1808.25 993.507ZM1883.69 779.121H1934.54V776.105H1883.69V779.121ZM1933.12 778.117L2009.39 993.503L2012.24 992.497L1935.96 777.11L1933.12 778.117ZM2010.81 991.492H1962.01V994.508H2010.81V991.492ZM1963.45 992.549L1949.57 948.273L1946.69 949.176L1960.57 993.451L1963.45 992.549ZM1937 911.153L1910.11 826.401L1907.24 827.313L1934.12 912.065L1937 911.153ZM1907.24 826.387L1879.48 911.139L1882.34 912.078L1910.11 827.326L1907.24 826.387ZM1880.91 913.117H1935.56V910.101H1880.91V913.117ZM2098.26 908.54V907.032H2096.75V908.54H2098.26ZM2098.26 993V994.508H2099.76V993H2098.26ZM2054.27 993H2052.76V994.508H2054.27V993ZM2054.27 777.613V776.105H2052.76V777.613H2054.27ZM2159.92 777.613L2159.95 776.105L2159.93 776.105H2159.92V777.613ZM2194.7 783.166L2194.11 784.555L2194.12 784.558L2194.7 783.166ZM2215.45 798.217L2214.3 799.195L2214.3 799.198L2215.45 798.217ZM2222.9 869.233L2224.23 869.934L2224.24 869.928L2222.9 869.233ZM2197.33 890.129L2196.84 888.703L2193.01 890.019L2196.76 891.528L2197.33 890.129ZM2218.37 907.225L2217.05 907.955L2217.05 907.965L2217.06 907.975L2218.37 907.225ZM2225.82 975.319L2227.3 975.008L2227.3 975L2227.29 974.992L2225.82 975.319ZM2234 987.593H2235.51V986.749L2234.79 986.308L2234 987.593ZM2234 993V994.508H2235.51V993H2234ZM2184.47 993L2183.02 993.414L2183.33 994.508H2184.47V993ZM2181.55 981.456L2180.07 981.743L2180.07 981.752L2181.55 981.456ZM2179.65 962.898L2178.14 962.92L2178.14 962.922L2179.65 962.898ZM2179.35 942.879L2177.85 942.901V942.901L2179.35 942.879ZM2171.76 915.408L2170.71 916.496L2170.72 916.502L2170.72 916.507L2171.76 915.408ZM2172.05 869.379L2171.42 868.007L2171.42 868.01L2172.05 869.379ZM2172.49 818.82L2171.79 820.158L2171.79 820.16L2172.49 818.82ZM2098.26 815.021V813.513H2096.75V815.021H2098.26ZM2098.26 872.886H2096.75V874.394H2098.26V872.886ZM2144.72 907.032H2098.26V910.048H2144.72V907.032ZM2096.75 908.54V993H2099.76V908.54H2096.75ZM2098.26 991.492H2054.27V994.508H2098.26V991.492ZM2055.78 993V777.613H2052.76V993H2055.78ZM2054.27 779.121H2159.92V776.105H2054.27V779.121ZM2159.89 779.121C2174.92 779.412 2186.29 781.255 2194.11 784.555L2195.28 781.776C2186.94 778.257 2175.12 776.399 2159.95 776.105L2159.89 779.121ZM2194.12 784.558C2202.09 787.878 2208.81 792.755 2214.3 799.195L2216.59 797.238C2210.79 790.43 2203.67 785.273 2195.28 781.774L2194.12 784.558ZM2214.3 799.198C2218.87 804.532 2222.49 810.434 2225.16 816.91L2227.95 815.762C2225.16 808.989 2221.37 802.812 2216.59 797.235L2214.3 799.198ZM2225.16 816.91C2227.8 823.322 2229.14 830.672 2229.14 838.985H2232.15C2232.15 830.348 2230.76 822.598 2227.95 815.762L2225.16 816.91ZM2229.14 838.985C2229.14 848.949 2226.62 858.795 2221.56 868.538L2224.24 869.928C2229.5 859.798 2232.15 849.478 2232.15 838.985H2229.14ZM2221.56 868.532C2216.6 877.985 2208.41 884.719 2196.84 888.703L2197.82 891.555C2210.02 887.356 2218.87 880.159 2224.23 869.934L2221.56 868.532ZM2196.76 891.528C2206.47 895.428 2213.17 900.928 2217.05 907.955L2219.69 906.496C2215.39 898.715 2208.06 892.818 2197.89 888.729L2196.76 891.528ZM2217.06 907.975C2221.05 914.936 2223.14 925.818 2223.14 940.834H2226.16C2226.16 925.65 2224.06 914.126 2219.68 906.475L2217.06 907.975ZM2223.14 940.834V955.3H2226.16V940.834H2223.14ZM2223.14 955.3C2223.14 965.122 2223.53 971.954 2224.35 975.646L2227.29 974.992C2226.56 971.67 2226.16 965.156 2226.16 955.3H2223.14ZM2224.35 975.63C2225.59 981.531 2228.53 986.003 2233.22 988.879L2234.79 986.308C2230.91 983.923 2228.39 980.213 2227.3 975.008L2224.35 975.63ZM2232.5 987.593V993H2235.51V987.593H2232.5ZM2234 991.492H2184.47V994.508H2234V991.492ZM2185.92 992.586C2184.56 987.829 2183.6 984.026 2183.02 981.16L2180.07 981.752C2180.66 984.732 2181.65 988.624 2183.02 993.414L2185.92 992.586ZM2183.03 981.17C2181.87 975.219 2181.25 969.121 2181.15 962.875L2178.14 962.922C2178.24 969.34 2178.88 975.614 2180.07 981.743L2183.03 981.17ZM2181.15 962.876L2180.86 942.857L2177.85 942.901L2178.14 962.92L2181.15 962.876ZM2180.86 942.858C2180.76 935.913 2180.07 930.052 2178.76 925.308C2177.45 920.569 2175.49 916.851 2172.79 914.309L2170.72 916.507C2172.89 918.543 2174.63 921.693 2175.85 926.112C2177.08 930.525 2177.75 936.11 2177.85 942.901L2180.86 942.858ZM2172.8 914.32C2167.57 909.305 2158.02 907.032 2144.72 907.032V910.048C2157.92 910.048 2166.39 912.354 2170.71 916.496L2172.8 914.32ZM2172.67 870.751C2177.43 868.581 2181.04 865.321 2183.45 860.977C2185.85 856.653 2187 851.342 2187 845.122H2183.98C2183.98 850.983 2182.9 855.754 2180.81 859.515C2178.74 863.257 2175.63 866.086 2171.42 868.007L2172.67 870.751ZM2187 845.122C2187 831.726 2182.52 822.308 2173.18 817.48L2171.79 820.16C2179.79 824.294 2183.98 832.412 2183.98 845.122H2187ZM2173.18 817.482C2167.99 814.782 2160.39 813.513 2150.57 813.513V816.529C2160.23 816.529 2167.24 817.793 2171.79 820.158L2173.18 817.482ZM2150.57 813.513H2098.26V816.529H2150.57V813.513ZM2096.75 815.021V872.886H2099.76V815.021H2096.75ZM2098.26 874.394H2149.25V871.378H2098.26V874.394ZM2149.25 874.394C2159.45 874.394 2167.31 873.225 2172.68 870.748L2171.42 868.01C2166.65 870.209 2159.32 871.378 2149.25 871.378V874.394ZM2284.48 993H2282.97V994.508H2284.48V993ZM2284.48 777.613V776.105H2282.97V777.613H2284.48ZM2377.26 777.613L2377.29 776.105L2377.28 776.105H2377.26V777.613ZM2410.58 782.289L2410.11 783.721L2410.11 783.722L2410.58 782.289ZM2447.26 809.614L2448.49 808.749L2448.49 808.745L2447.26 809.614ZM2449.45 952.816L2450.75 953.574L2450.76 953.571L2449.45 952.816ZM2410.73 832.556L2412.03 831.801L2412.03 831.794L2412.02 831.788L2410.73 832.556ZM2328.17 815.021V813.513H2326.66V815.021H2328.17ZM2328.17 955.592H2326.66V957.1H2328.17V955.592ZM2414.09 924.176L2415.49 924.736L2415.49 924.734L2414.09 924.176ZM2377.26 991.492H2284.48V994.508H2377.26V991.492ZM2285.98 993V777.613H2282.97V993H2285.98ZM2284.48 779.121H2377.26V776.105H2284.48V779.121ZM2377.24 779.121C2390.5 779.315 2401.44 780.862 2410.11 783.721L2411.05 780.857C2402 777.871 2390.73 776.301 2377.29 776.105L2377.24 779.121ZM2410.11 783.722C2424.89 788.587 2436.86 797.494 2446.03 810.484L2448.49 808.745C2438.96 795.237 2426.47 785.928 2411.05 780.856L2410.11 783.722ZM2446.02 810.479C2453.41 821.036 2458.44 832.444 2461.13 844.714L2464.07 844.07C2461.3 831.401 2456.11 819.624 2448.49 808.749L2446.02 810.479ZM2461.13 844.714C2463.84 857.091 2465.18 868.867 2465.18 880.046H2468.2C2468.2 868.625 2466.82 856.631 2464.07 844.07L2461.13 844.714ZM2465.18 880.046C2465.18 908.486 2459.48 932.468 2448.14 952.061L2450.76 953.571C2462.41 933.418 2468.2 908.887 2468.2 880.046H2465.18ZM2448.15 952.057C2432.85 978.355 2409.3 991.492 2377.26 991.492V994.508C2410.31 994.508 2434.88 980.856 2450.75 953.574L2448.15 952.057ZM2412.02 831.788C2404.72 819.434 2390.36 813.513 2369.67 813.513V816.529C2389.88 816.529 2402.91 822.298 2409.43 833.324L2412.02 831.788ZM2369.67 813.513H2328.17V816.529H2369.67V813.513ZM2326.66 815.021V955.592H2329.67V815.021H2326.66ZM2328.17 957.1H2369.67V954.084H2328.17V957.1ZM2369.67 957.1C2380.54 957.1 2389.87 954.415 2397.57 948.969C2405.26 943.529 2411.22 935.412 2415.49 924.736L2412.69 923.615C2408.58 933.883 2402.94 941.475 2395.83 946.507C2388.72 951.533 2380.03 954.084 2369.67 954.084V957.1ZM2415.49 924.734C2420.15 913.018 2422.46 899.133 2422.46 883.115H2419.45C2419.45 898.854 2417.18 912.342 2412.69 923.618L2415.49 924.734ZM2422.46 883.115C2422.46 861.076 2419.04 843.917 2412.03 831.801L2409.42 833.311C2416.05 844.769 2419.45 861.316 2419.45 883.115H2422.46ZM2512.2 777.613V776.105H2510.69V777.613H2512.2ZM2556.91 777.613H2558.42V776.105H2556.91V777.613ZM2556.91 993V994.508H2558.42V993H2556.91ZM2512.2 993H2510.69V994.508H2512.2V993ZM2512.2 779.121H2556.91V776.105H2512.2V779.121ZM2555.4 777.613V993H2558.42V777.613H2555.4ZM2556.91 991.492H2512.2V994.508H2556.91V991.492ZM2513.7 993V777.613H2510.69V993H2513.7ZM2638.65 973.858L2639.73 972.807L2639.71 972.783L2639.69 972.76L2638.65 973.858ZM2638.65 796.171L2639.66 797.288L2639.7 797.256L2639.73 797.221L2638.65 796.171ZM2779.81 796.171L2778.73 797.221L2778.76 797.255L2778.79 797.286L2779.81 796.171ZM2779.81 973.858L2778.77 972.762L2778.75 972.784L2778.73 972.807L2779.81 973.858ZM2751.75 941.126L2752.93 942.068L2752.93 942.063L2751.75 941.126ZM2751.61 829.049L2750.42 829.981L2750.43 829.991L2751.61 829.049ZM2709.23 997.483C2678.72 997.483 2655.64 989.186 2639.73 972.807L2637.57 974.908C2654.2 992.041 2678.17 1000.5 2709.23 1000.5V997.483ZM2639.69 972.76C2618.25 952.567 2607.43 923.4 2607.43 885.014H2604.41C2604.41 923.977 2615.41 954.039 2637.62 974.956L2639.69 972.76ZM2607.43 885.014C2607.43 845.835 2618.26 816.69 2639.66 797.288L2637.64 795.053C2615.4 815.203 2604.41 845.287 2604.41 885.014H2607.43ZM2639.73 797.221C2655.64 780.843 2678.72 772.546 2709.23 772.546V769.529C2678.17 769.529 2654.2 777.988 2637.57 795.12L2639.73 797.221ZM2709.23 772.546C2739.74 772.546 2762.82 780.843 2778.73 797.221L2780.89 795.12C2764.25 777.988 2740.29 769.529 2709.23 769.529V772.546ZM2778.79 797.286C2800.1 816.687 2810.88 845.833 2810.88 885.014H2813.9C2813.9 845.289 2802.96 815.205 2780.82 795.056L2778.79 797.286ZM2810.88 885.014C2810.88 923.402 2800.11 952.57 2778.77 972.762L2780.84 974.953C2802.95 954.036 2813.9 923.975 2813.9 885.014H2810.88ZM2778.73 972.807C2762.82 989.186 2739.74 997.483 2709.23 997.483V1000.5C2740.29 1000.5 2764.25 992.041 2780.89 974.908L2778.73 972.807ZM2752.93 942.063C2763.64 928.549 2768.89 909.464 2768.89 885.014H2765.88C2765.88 909.078 2760.71 927.401 2750.57 940.189L2752.93 942.063ZM2768.89 885.014C2768.89 860.658 2763.59 841.62 2752.78 828.107L2750.43 829.991C2760.66 842.78 2765.88 861.053 2765.88 885.014H2768.89ZM2752.79 828.116C2742.06 814.481 2727.49 807.668 2709.23 807.668V810.684C2726.62 810.684 2740.3 817.12 2750.42 829.981L2752.79 828.116ZM2709.23 807.668C2690.97 807.668 2676.31 814.428 2665.39 827.955L2667.73 829.85C2678.05 817.075 2691.83 810.684 2709.23 810.684V807.668ZM2665.39 827.955C2654.48 841.47 2649.13 860.559 2649.13 885.014H2652.14C2652.14 860.956 2657.41 842.638 2667.73 829.85L2665.39 827.955ZM2649.13 885.014C2649.13 909.469 2654.48 928.559 2665.39 942.073L2667.73 940.179C2657.41 927.391 2652.14 909.072 2652.14 885.014H2649.13ZM2665.39 942.073C2676.31 955.601 2690.97 962.361 2709.23 962.361V959.345C2691.83 959.345 2678.05 952.953 2667.73 940.179L2665.39 942.073ZM2709.23 962.361C2727.48 962.361 2742.1 955.6 2752.93 942.068L2750.57 940.184C2740.36 952.954 2726.63 959.345 2709.23 959.345V962.361ZM2861.84 777.613V776.105H2860.33V777.613H2861.84ZM2906.85 777.613H2908.36V776.105H2906.85V777.613ZM2906.85 954.277H2905.34V955.785H2906.85V954.277ZM3013.52 954.277H3015.03V952.769H3013.52V954.277ZM3013.52 993V994.508H3015.03V993H3013.52ZM2861.84 993H2860.33V994.508H2861.84V993ZM2861.84 779.121H2906.85V776.105H2861.84V779.121ZM2905.34 777.613V954.277H2908.36V777.613H2905.34ZM2906.85 955.785H3013.52V952.769H2906.85V955.785ZM3012.01 954.277V993H3015.03V954.277H3012.01ZM3013.52 991.492H2861.84V994.508H3013.52V991.492ZM2863.35 993V777.613H2860.33V993H2863.35ZM3084.45 973.858L3085.53 972.807L3085.51 972.783L3085.48 972.76L3084.45 973.858ZM3084.45 796.171L3085.46 797.288L3085.5 797.256L3085.53 797.221L3084.45 796.171ZM3225.6 796.171L3224.52 797.221L3224.55 797.255L3224.59 797.286L3225.6 796.171ZM3225.6 973.858L3224.57 972.762L3224.54 972.784L3224.52 972.807L3225.6 973.858ZM3197.55 941.126L3198.72 942.068L3198.73 942.063L3197.55 941.126ZM3197.4 829.049L3196.22 829.981L3196.22 829.991L3197.4 829.049ZM3155.02 997.483C3124.51 997.483 3101.43 989.186 3085.53 972.807L3083.36 974.908C3100 992.041 3123.97 1000.5 3155.02 1000.5V997.483ZM3085.48 972.76C3064.04 952.567 3053.22 923.4 3053.22 885.014H3050.21C3050.21 923.977 3061.21 954.039 3083.41 974.956L3085.48 972.76ZM3053.22 885.014C3053.22 845.835 3064.05 816.69 3085.46 797.288L3083.43 795.053C3061.2 815.203 3050.21 845.287 3050.21 885.014H3053.22ZM3085.53 797.221C3101.43 780.843 3124.51 772.546 3155.02 772.546V769.529C3123.97 769.529 3100 777.988 3083.36 795.12L3085.53 797.221ZM3155.02 772.546C3185.54 772.546 3208.62 780.843 3224.52 797.221L3226.68 795.12C3210.05 777.988 3186.08 769.529 3155.02 769.529V772.546ZM3224.59 797.286C3245.9 816.687 3256.68 845.833 3256.68 885.014H3259.7C3259.7 845.289 3248.75 815.205 3226.62 795.056L3224.59 797.286ZM3256.68 885.014C3256.68 923.402 3245.91 952.57 3224.57 972.762L3226.64 974.953C3248.75 954.036 3259.7 923.975 3259.7 885.014H3256.68ZM3224.52 972.807C3208.62 989.186 3185.54 997.483 3155.02 997.483V1000.5C3186.08 1000.5 3210.05 992.041 3226.68 974.908L3224.52 972.807ZM3198.73 942.063C3209.44 928.549 3214.69 909.464 3214.69 885.014H3211.67C3211.67 909.078 3206.5 927.401 3196.36 940.189L3198.73 942.063ZM3214.69 885.014C3214.69 860.658 3209.39 841.62 3198.58 828.107L3196.22 829.991C3206.45 842.78 3211.67 861.053 3211.67 885.014H3214.69ZM3198.59 828.116C3187.86 814.481 3173.28 807.668 3155.02 807.668V810.684C3172.42 810.684 3186.1 817.12 3196.22 829.981L3198.59 828.116ZM3155.02 807.668C3136.77 807.668 3122.11 814.428 3111.18 827.955L3113.53 829.85C3123.84 817.075 3137.62 810.684 3155.02 810.684V807.668ZM3111.18 827.955C3100.27 841.47 3094.92 860.559 3094.92 885.014H3097.94C3097.94 860.956 3103.2 842.638 3113.53 829.85L3111.18 827.955ZM3094.92 885.014C3094.92 909.469 3100.27 928.559 3111.18 942.073L3113.53 940.179C3103.2 927.391 3097.94 909.072 3097.94 885.014H3094.92ZM3111.18 942.073C3122.11 955.601 3136.77 962.361 3155.02 962.361V959.345C3137.62 959.345 3123.84 952.953 3113.53 940.179L3111.18 942.073ZM3155.02 962.361C3173.28 962.361 3187.9 955.6 3198.72 942.068L3196.37 940.184C3186.15 952.954 3172.42 959.345 3155.02 959.345V962.361ZM3439.73 987.74L3438.95 986.45L3438.94 986.455L3439.73 987.74ZM3325.76 969.036L3326.87 968.014L3326.86 968.004L3326.85 967.994L3325.76 969.036ZM3468.08 792.956L3467.11 794.11L3467.12 794.116L3468.08 792.956ZM3496.72 844.83V846.338H3498.42L3498.22 844.654L3496.72 844.83ZM3452.45 844.83L3450.98 845.171L3451.25 846.338H3452.45V844.83ZM3427.46 813.998L3428.07 812.618L3428.06 812.615L3427.46 813.998ZM3359.95 828.903L3358.8 827.925L3358.8 827.925L3359.95 828.903ZM3439.73 947.702L3440.74 948.823L3440.75 948.817L3439.73 947.702ZM3457.56 913.362L3459.05 913.599L3459.33 911.854H3457.56V913.362ZM3407.73 913.362H3406.22V914.87H3407.73V913.362ZM3407.73 877.416V875.908H3406.22V877.416H3407.73ZM3497.45 877.416H3498.96V875.908H3497.45V877.416ZM3497.45 993V994.508H3498.96V993H3497.45ZM3467.64 993L3466.16 993.251L3466.37 994.508H3467.64V993ZM3463.11 966.113L3464.6 965.863L3464.06 962.662L3461.96 965.138L3463.11 966.113ZM3438.94 986.455C3427.35 993.583 3413.02 997.191 3395.9 997.191V1000.21C3413.45 1000.21 3428.35 996.508 3440.52 989.024L3438.94 986.455ZM3395.9 997.191C3367.74 997.191 3344.78 987.459 3326.87 968.014L3324.65 970.057C3343.17 990.164 3366.96 1000.21 3395.9 1000.21V997.191ZM3326.85 967.994C3308.18 948.468 3298.77 921.699 3298.77 887.498H3295.75C3295.75 922.268 3305.34 949.857 3324.67 970.078L3326.85 967.994ZM3298.77 887.498C3298.77 852.911 3308.28 825.344 3327.16 804.639L3324.93 802.607C3305.44 823.986 3295.75 852.336 3295.75 887.498H3298.77ZM3327.16 804.639C3346.03 783.947 3370.99 773.568 3402.18 773.568V770.552C3370.24 770.552 3344.44 781.216 3324.93 802.607L3327.16 804.639ZM3402.18 773.568C3429.29 773.568 3450.89 780.464 3467.11 794.11L3469.05 791.802C3452.15 777.588 3429.81 770.552 3402.18 770.552V773.568ZM3467.12 794.116C3483.49 807.712 3492.83 824.656 3495.22 845.006L3498.22 844.654C3495.74 823.505 3485.99 805.866 3469.04 791.796L3467.12 794.116ZM3496.72 843.322H3452.45V846.338H3496.72V843.322ZM3453.91 844.49C3450.4 829.34 3441.77 818.664 3428.07 812.618L3426.85 815.378C3439.64 821.022 3447.67 830.9 3450.98 845.171L3453.91 844.49ZM3428.06 812.615C3420.44 809.308 3412 807.668 3402.76 807.668V810.684C3411.64 810.684 3419.67 812.258 3426.86 815.381L3428.06 812.615ZM3402.76 807.668C3384.98 807.668 3370.29 814.436 3358.8 827.925L3361.1 829.881C3372.01 817.067 3385.86 810.684 3402.76 810.684V807.668ZM3358.8 827.925C3347.37 841.365 3341.78 861.46 3341.78 887.937H3344.8C3344.8 861.809 3350.32 842.548 3361.1 829.88L3358.8 827.925ZM3341.78 887.937C3341.78 914.602 3347.85 933.88 3360.39 945.309L3362.43 943.08C3350.81 932.494 3344.8 914.266 3344.8 887.937H3341.78ZM3360.39 945.309C3372.73 956.553 3386.83 962.215 3402.62 962.215V959.198C3387.63 959.198 3374.25 953.852 3362.43 943.08L3360.39 945.309ZM3402.62 962.215C3418.02 962.215 3430.78 957.782 3440.74 948.823L3438.72 946.58C3429.4 954.961 3417.41 959.198 3402.62 959.198V962.215ZM3440.75 948.817C3450.67 939.796 3456.76 928.028 3459.05 913.599L3456.07 913.126C3453.88 926.948 3448.08 938.072 3438.72 946.586L3440.75 948.817ZM3457.56 911.854H3407.73V914.87H3457.56V911.854ZM3409.24 913.362V877.416H3406.22V913.362H3409.24ZM3407.73 878.924H3497.45V875.908H3407.73V878.924ZM3495.94 877.416V993H3498.96V877.416H3495.94ZM3497.45 991.492H3467.64V994.508H3497.45V991.492ZM3469.13 992.749L3464.6 965.863L3461.63 966.364L3466.16 993.251L3469.13 992.749ZM3461.96 965.138C3453.34 975.313 3445.67 982.382 3438.95 986.45L3440.51 989.03C3447.63 984.719 3455.55 977.371 3464.26 967.088L3461.96 965.138ZM3552.01 777.613V776.105H3550.51V777.613H3552.01ZM3596.73 777.613H3598.24V776.105H3596.73V777.613ZM3596.73 993V994.508H3598.24V993H3596.73ZM3552.01 993H3550.51V994.508H3552.01V993ZM3552.01 779.121H3596.73V776.105H3552.01V779.121ZM3595.22 777.613V993H3598.24V777.613H3595.22ZM3596.73 991.492H3552.01V994.508H3596.73V991.492ZM3553.52 993V777.613H3550.51V993H3553.52ZM3803.7 898.896V900.404H3805.21V898.896H3803.7ZM3699.07 898.896V897.388H3697.57V898.896H3699.07ZM3699.07 954.277H3697.57V955.785H3699.07V954.277ZM3818.31 954.277H3819.82V952.769H3818.31V954.277ZM3818.31 993V994.508H3819.82V993H3818.31ZM3655.09 993H3653.58V994.508H3655.09V993ZM3655.09 777.613V776.105H3653.58V777.613H3655.09ZM3813.05 777.613H3814.56V776.105H3813.05V777.613ZM3813.05 815.751V817.26H3814.56V815.751H3813.05ZM3699.07 815.751V814.243H3697.57V815.751H3699.07ZM3699.07 861.488H3697.57V862.996H3699.07V861.488ZM3803.7 861.488H3805.21V859.98H3803.7V861.488ZM3803.7 897.388H3699.07V900.404H3803.7V897.388ZM3697.57 898.896V954.277H3700.58V898.896H3697.57ZM3699.07 955.785H3818.31V952.769H3699.07V955.785ZM3816.8 954.277V993H3819.82V954.277H3816.8ZM3818.31 991.492H3655.09V994.508H3818.31V991.492ZM3656.6 993V777.613H3653.58V993H3656.6ZM3655.09 779.121H3813.05V776.105H3655.09V779.121ZM3811.54 777.613V815.751H3814.56V777.613H3811.54ZM3813.05 814.243H3699.07V817.26H3813.05V814.243ZM3697.57 815.751V861.488H3700.58V815.751H3697.57ZM3699.07 862.996H3803.7V859.98H3699.07V862.996ZM3802.19 861.488V898.896H3805.21V861.488H3802.19Z" fill="#AF2F41" mask="url(#path-12-outside-1_1_2)"/>
    <path d="M1639.59 560.874C1653.41 560.874 1664.13 564.515 1671.76 571.797C1679.39 579.079 1683.62 587.351 1684.47 596.615H1670.05C1668.42 589.58 1665.15 584.008 1660.24 579.896C1655.39 575.785 1648.55 573.729 1639.73 573.729C1628.99 573.729 1620.29 577.518 1613.65 585.097C1607.07 592.627 1603.77 604.194 1603.77 619.798C1603.77 632.578 1606.74 642.956 1612.69 650.931C1618.68 658.857 1627.6 662.82 1639.44 662.82C1650.34 662.82 1658.63 658.634 1664.33 650.263C1667.35 645.854 1669.61 640.058 1671.09 632.875H1685.51C1684.22 644.368 1679.96 654.003 1672.73 661.78C1664.06 671.142 1652.37 675.824 1637.65 675.824C1624.97 675.824 1614.32 671.985 1605.7 664.306C1594.36 654.151 1588.69 638.473 1588.69 617.271C1588.69 601.172 1592.95 587.971 1601.47 577.667C1610.68 566.472 1623.39 560.874 1639.59 560.874ZM1711.17 563.846H1725.96V659.997H1781.24V673H1711.17V563.846ZM1806.83 563.846H1821.77V673H1806.83V563.846ZM1853.45 563.846H1870.91L1926.05 652.269V563.846H1940.09V673H1923.52L1867.57 584.652V673H1853.45V563.846ZM1974.37 563.846H1989.31V673H1974.37V563.846ZM2120.86 672.703L2113.43 681.694L2096.56 668.839C2092.5 671.068 2088.09 672.851 2083.33 674.189C2078.63 675.526 2073.48 676.195 2067.88 676.195C2050.94 676.195 2037.66 670.647 2028.05 659.551C2019.58 648.752 2015.35 635.228 2015.35 618.98C2015.35 604.219 2019.01 591.587 2026.34 581.085C2035.75 567.611 2049.67 560.874 2068.1 560.874C2087.37 560.874 2101.64 567.066 2110.9 579.45C2118.13 589.11 2121.75 601.469 2121.75 616.528C2121.75 623.563 2120.88 630.324 2119.15 636.814C2116.52 646.721 2112.09 654.795 2105.85 661.037L2120.86 672.703ZM2069.66 662.969C2072.73 662.969 2075.61 662.771 2078.28 662.374C2080.96 661.929 2083.28 661.086 2085.27 659.848L2073.3 650.486L2080.73 641.346L2095 652.418C2099.51 647.266 2102.55 641.495 2104.14 635.105C2105.77 628.714 2106.59 622.597 2106.59 616.751C2106.59 603.921 2103.22 593.593 2096.49 585.766C2089.8 577.939 2080.63 574.026 2068.99 574.026C2057.2 574.026 2047.87 577.791 2040.98 585.32C2034.1 592.8 2030.65 604.342 2030.65 619.946C2030.65 633.074 2033.95 643.526 2040.53 651.303C2047.17 659.08 2056.88 662.969 2069.66 662.969ZM2163.09 563.846V631.315C2163.09 639.241 2164.58 645.829 2167.55 651.08C2171.96 659.006 2179.39 662.969 2189.84 662.969C2202.38 662.969 2210.9 658.684 2215.4 650.114C2217.83 645.458 2219.04 639.191 2219.04 631.315V563.846H2234.05V625.148C2234.05 638.572 2232.25 648.9 2228.63 656.133C2221.99 669.31 2209.46 675.898 2191.03 675.898C2172.6 675.898 2160.1 669.31 2153.51 656.133C2149.89 648.9 2148.08 638.572 2148.08 625.148V563.846H2163.09ZM2266.04 563.846H2345.62V577.221H2280.45V610.361H2340.71V622.993H2280.45V659.997H2346.73V673H2266.04V563.846ZM2465.6 660.368C2470.61 660.368 2474.72 659.848 2477.94 658.808C2483.68 656.876 2488.39 653.161 2492.06 647.662C2494.98 643.253 2497.08 637.606 2498.37 630.721C2499.11 626.609 2499.49 622.795 2499.49 619.278C2499.49 605.754 2496.79 595.252 2491.39 587.772C2486.04 580.292 2477.39 576.552 2465.45 576.552H2439.22V660.368H2465.6ZM2424.36 563.846H2468.58C2483.58 563.846 2495.23 569.171 2503.5 579.822C2510.88 589.432 2514.57 601.742 2514.57 616.751C2514.57 628.343 2512.39 638.82 2508.03 648.182C2500.35 664.727 2487.15 673 2468.43 673H2424.36V563.846ZM2542.69 563.846H2622.27V577.221H2557.1V610.361H2617.36V622.993H2557.1V659.997H2623.38V673H2542.69V563.846Z" fill="#AF2F41"/>
    <defs>
        <filter id="filter0_d_1_2" x="781.509" y="806.418" width="175.15" height="380.795" filterUnits="userSpaceOnUse" color-interpolation-filters="sRGB">
            <feFlood flood-opacity="0" result="BackgroundImageFix"/>
            <feColorMatrix in="SourceAlpha" type="matrix" values="0 0 0 0 0 0 0 0 0 0 0 0 0 0 0 0 0 0 127 0" result="hardAlpha"/>
            <feOffset dy="5.78575"/>
            <feGaussianBlur stdDeviation="4.70092"/>
            <feComposite in2="hardAlpha" operator="out"/>
            <feColorMatrix type="matrix" values="0 0 0 0 0 0 0 0 0 0 0 0 0 0 0 0 0 0 0.25 0"/>
            <feBlend mode="normal" in2="BackgroundImageFix" result="effect1_dropShadow_1_2"/>
            <feBlend mode="normal" in="SourceGraphic" in2="effect1_dropShadow_1_2" result="shape"/>
        </filter>
        <filter id="filter1_d_1_2" x="648.598" y="476.384" width="217.984" height="187.804" filterUnits="userSpaceOnUse" color-interpolation-filters="sRGB">
            <feFlood flood-opacity="0" result="BackgroundImageFix"/>
            <feColorMatrix in="SourceAlpha" type="matrix" values="0 0 0 0 0 0 0 0 0 0 0 0 0 0 0 0 0 0 127 0" result="hardAlpha"/>
            <feOffset dy="5.78575"/>
            <feGaussianBlur stdDeviation="4.70092"/>
            <feComposite in2="hardAlpha" operator="out"/>
            <feColorMatrix type="matrix" values="0 0 0 0 0 0 0 0 0 0 0 0 0 0 0 0 0 0 0.25 0"/>
            <feBlend mode="normal" in2="BackgroundImageFix" result="effect1_dropShadow_1_2"/>
            <feBlend mode="normal" in="SourceGraphic" in2="effect1_dropShadow_1_2" result="shape"/>
        </filter>
        <filter id="filter2_d_1_2" x="550.953" y="632.741" width="442.987" height="549.799" filterUnits="userSpaceOnUse" color-interpolation-filters="sRGB">
            <feFlood flood-opacity="0" result="BackgroundImageFix"/>
            <feColorMatrix in="SourceAlpha" type="matrix" values="0 0 0 0 0 0 0 0 0 0 0 0 0 0 0 0 0 0 127 0" result="hardAlpha"/>
            <feOffset dy="5.78575"/>
            <feGaussianBlur stdDeviation="4.70092"/>
            <feComposite in2="hardAlpha" operator="out"/>
            <feColorMatrix type="matrix" values="0 0 0 0 0 0 0 0 0 0 0 0 0 0 0 0 0 0 0.25 0"/>
            <feBlend mode="normal" in2="BackgroundImageFix" result="effect1_dropShadow_1_2"/>
            <feBlend mode="normal" in="SourceGraphic" in2="effect1_dropShadow_1_2" result="shape"/>
        </filter>
        <filter id="filter3_d_1_2" x="713.78" y="632.741" width="217.98" height="135.166" filterUnits="userSpaceOnUse" color-interpolation-filters="sRGB">
            <feFlood flood-opacity="0" result="BackgroundImageFix"/>
            <feColorMatrix in="SourceAlpha" type="matrix" values="0 0 0 0 0 0 0 0 0 0 0 0 0 0 0 0 0 0 127 0" result="hardAlpha"/>
            <feOffset dy="5.78575"/>
            <feGaussianBlur stdDeviation="4.70092"/>
            <feComposite in2="hardAlpha" operator="out"/>
            <feColorMatrix type="matrix" values="0 0 0 0 0 0 0 0 0 0 0 0 0 0 0 0 0 0 0.25 0"/>
            <feBlend mode="normal" in2="BackgroundImageFix" result="effect1_dropShadow_1_2"/>
            <feBlend mode="normal" in="SourceGraphic" in2="effect1_dropShadow_1_2" result="shape"/>
        </filter>
        <filter id="filter4_d_1_2" x="986.098" y="653.064" width="354.804" height="357.919" filterUnits="userSpaceOnUse" color-interpolation-filters="sRGB">
            <feFlood flood-opacity="0" result="BackgroundImageFix"/>
            <feColorMatrix in="SourceAlpha" type="matrix" values="0 0 0 0 0 0 0 0 0 0 0 0 0 0 0 0 0 0 127 0" result="hardAlpha"/>
            <feOffset dy="5.78575"/>
            <feGaussianBlur stdDeviation="4.70092"/>
            <feComposite in2="hardAlpha" operator="out"/>
            <feColorMatrix type="matrix" values="0 0 0 0 0 0 0 0 0 0 0 0 0 0 0 0 0 0 0.25 0"/>
            <feBlend mode="normal" in2="BackgroundImageFix" result="effect1_dropShadow_1_2"/>
            <feBlend mode="normal" in="SourceGraphic" in2="effect1_dropShadow_1_2" result="shape"/>
        </filter>
        <filter id="filter5_d_1_2" x="297.598" y="863.384" width="244.804" height="30.8037" filterUnits="userSpaceOnUse" color-interpolation-filters="sRGB">
            <feFlood flood-opacity="0" result="BackgroundImageFix"/>
            <feColorMatrix in="SourceAlpha" type="matrix" values="0 0 0 0 0 0 0 0 0 0 0 0 0 0 0 0 0 0 127 0" result="hardAlpha"/>
            <feOffset dy="5.78575"/>
            <feGaussianBlur stdDeviation="4.70092"/>
            <feComposite in2="hardAlpha" operator="out"/>
            <feColorMatrix type="matrix" values="0 0 0 0 0 0 0 0 0 0 0 0 0 0 0 0 0 0 0.25 0"/>
            <feBlend mode="normal" in2="BackgroundImageFix" result="effect1_dropShadow_1_2"/>
            <feBlend mode="normal" in="SourceGraphic" in2="effect1_dropShadow_1_2" result="shape"/>
        </filter>
        <filter id="filter6_d_1_2" x="221.626" y="305.966" width="960.67" height="1122.15" filterUnits="userSpaceOnUse" color-interpolation-filters="sRGB">
            <feFlood flood-opacity="0" result="BackgroundImageFix"/>
            <feColorMatrix in="SourceAlpha" type="matrix" values="0 0 0 0 0 0 0 0 0 0 0 0 0 0 0 0 0 0 127 0" result="hardAlpha"/>
            <feOffset dy="4.33931"/>
            <feGaussianBlur stdDeviation="5.35182"/>
            <feComposite in2="hardAlpha" operator="out"/>
            <feColorMatrix type="matrix" values="0 0 0 0 0 0 0 0 0 0 0 0 0 0 0 0 0 0 0.25 0"/>
            <feBlend mode="normal" in2="BackgroundImageFix" result="effect1_dropShadow_1_2"/>
            <feBlend mode="normal" in="SourceGraphic" in2="effect1_dropShadow_1_2" result="shape"/>
        </filter>
        <filter id="filter7_d_1_2" x="1115.02" y="483.756" width="221.919" height="380.446" filterUnits="userSpaceOnUse" color-interpolation-filters="sRGB">
            <feFlood flood-opacity="0" result="BackgroundImageFix"/>
            <feColorMatrix in="SourceAlpha" type="matrix" values="0 0 0 0 0 0 0 0 0 0 0 0 0 0 0 0 0 0 127 0" result="hardAlpha"/>
            <feOffset dy="5.78575"/>
            <feGaussianBlur stdDeviation="2.89287"/>
            <feComposite in2="hardAlpha" operator="out"/>
            <feColorMatrix type="matrix" values="0 0 0 0 0 0 0 0 0 0 0 0 0 0 0 0 0 0 0.25 0"/>
            <feBlend mode="normal" in2="BackgroundImageFix" result="effect1_dropShadow_1_2"/>
            <feBlend mode="normal" in="SourceGraphic" in2="effect1_dropShadow_1_2" result="shape"/>
        </filter>
        <filter id="filter8_d_1_2" x="1109.61" y="871.52" width="220.666" height="375.23" filterUnits="userSpaceOnUse" color-interpolation-filters="sRGB">
            <feFlood flood-opacity="0" result="BackgroundImageFix"/>
            <feColorMatrix in="SourceAlpha" type="matrix" values="0 0 0 0 0 0 0 0 0 0 0 0 0 0 0 0 0 0 127 0" result="hardAlpha"/>
            <feOffset dx="-5.78575"/>
            <feGaussianBlur stdDeviation="4.19467"/>
            <feComposite in2="hardAlpha" operator="out"/>
            <feColorMatrix type="matrix" values="0 0 0 0 0 0 0 0 0 0 0 0 0 0 0 0 0 0 0.25 0"/>
            <feBlend mode="normal" in2="BackgroundImageFix" result="effect1_dropShadow_1_2"/>
            <feBlend mode="normal" in="SourceGraphic" in2="effect1_dropShadow_1_2" result="shape"/>
        </filter>
        <linearGradient id="paint0_linear_1_2" x1="795.5" y1="504.5" x2="789" y2="612" gradientUnits="userSpaceOnUse">
            <stop stop-color="white"/>
            <stop offset="1" stop-color="#932738"/>
        </linearGradient>
        <linearGradient id="paint1_linear_1_2" x1="795.5" y1="504.5" x2="789" y2="612" gradientUnits="userSpaceOnUse">
            <stop stop-color="white"/>
            <stop offset="1" stop-color="#932738"/>
        </linearGradient>
        <linearGradient id="paint2_linear_1_2" x1="795.5" y1="504.5" x2="789" y2="612" gradientUnits="userSpaceOnUse">
            <stop stop-color="white"/>
            <stop offset="1" stop-color="#932738"/>
        </linearGradient>
        <linearGradient id="paint3_linear_1_2" x1="795.5" y1="504.5" x2="789" y2="612" gradientUnits="userSpaceOnUse">
            <stop stop-color="white"/>
            <stop offset="1" stop-color="#932738"/>
        </linearGradient>
        <linearGradient id="paint4_linear_1_2" x1="899.138" y1="684.065" x2="651.074" y2="1018.92" gradientUnits="userSpaceOnUse">
            <stop offset="0.321171" stop-color="white"/>
            <stop offset="0.565601" stop-color="#AF2F41"/>
            <stop offset="0.721604" stop-color="#8E2333"/>
            <stop offset="0.9999" stop-color="#CD5768"/>
        </linearGradient>
        <linearGradient id="paint5_linear_1_2" x1="899.138" y1="684.065" x2="651.074" y2="1018.92" gradientUnits="userSpaceOnUse">
            <stop offset="0.321171" stop-color="white"/>
            <stop offset="0.565601" stop-color="#AF2F41"/>
            <stop offset="0.721604" stop-color="#8E2333"/>
            <stop offset="0.9999" stop-color="#CD5768"/>
        </linearGradient>
        <linearGradient id="paint6_linear_1_2" x1="899.138" y1="684.065" x2="651.074" y2="1018.92" gradientUnits="userSpaceOnUse">
            <stop offset="0.321171" stop-color="white"/>
            <stop offset="0.565601" stop-color="#AF2F41"/>
            <stop offset="0.721604" stop-color="#8E2333"/>
            <stop offset="0.9999" stop-color="#CD5768"/>
        </linearGradient>
        <linearGradient id="paint7_linear_1_2" x1="899.138" y1="684.065" x2="651.074" y2="1018.92" gradientUnits="userSpaceOnUse">
            <stop offset="0.321171" stop-color="white"/>
            <stop offset="0.565601" stop-color="#AF2F41"/>
            <stop offset="0.721604" stop-color="#8E2333"/>
            <stop offset="0.9999" stop-color="#CD5768"/>
        </linearGradient>
        <linearGradient id="paint8_linear_1_2" x1="944.7" y1="651.521" x2="651.073" y2="1018.92" gradientUnits="userSpaceOnUse">
            <stop stop-color="white"/>
            <stop offset="0.212301" stop-color="#D899A2"/>
            <stop offset="0.382077" stop-color="#AF2F41"/>
        </linearGradient>
        <linearGradient id="paint9_linear_1_2" x1="950" y1="191" x2="169" y2="1175.5" gradientUnits="userSpaceOnUse">
            <stop offset="0.213143" stop-color="#5F6061"/>
            <stop offset="0.488616" stop-color="#C3C5C7"/>
            <stop offset="0.844125" stop-color="#5F6061"/>
        </linearGradient>
    </defs>
</svg>